if (_typeface_js && _typeface_js.loadFace) _typeface_js.loadFace({"glyphs":{"S":{"x_min":99,"x_max":644.015625,"ha":751,"o":"m 99 123 l 99 236 l 178 235 l 288 141 l 436 142 l 435 357 l 106 626 l 107 835 l 241 971 l 510 971 l 644 854 l 644 754 l 569 754 l 463 843 l 315 843 l 315 648 l 644 377 l 644 148 l 496 0 l 234 0 l 99 123 "},"¦":{"x_min":0,"x_max":0,"ha":5},"/":{"x_min":52.21875,"x_max":700.453125,"ha":751,"o":"m 700 1080 l 188 0 l 52 0 l 571 1080 l 700 1080 "},"y":{"x_min":106,"x_max":751,"ha":859,"o":"m 295 -235 l 536 -235 l 536 0 l 241 0 l 106 134 l 106 757 l 321 757 l 321 115 l 536 115 l 536 757 l 751 757 l 751 -214 l 616 -350 l 240 -350 l 106 -215 l 106 -134 l 193 -134 l 295 -235 "},"Á":{"x_min":0,"x_max":0,"ha":5},"":{"x_min":85,"x_max":1128,"ha":1181,"o":"m 444 175 l 190 175 l 85 289 l 85 496 l 192 612 l 411 612 l 588 444 l 771 612 l 1022 612 l 1128 503 l 1128 285 l 1019 175 l 805 175 l 626 330 l 444 175 m 173 328 l 238 261 l 366 261 l 543 405 l 413 525 l 239 525 l 173 460 l 173 328 m 844 524 l 675 373 l 801 261 l 977 261 l 1041 325 l 1041 461 l 973 525 l 844 524 "},"g":{"x_min":106,"x_max":751,"ha":859,"o":"m 751 757 l 751 -215 l 616 -350 l 241 -350 l 106 -215 l 106 -128 l 215 -128 l 215 -235 l 536 -235 l 536 0 l 241 0 l 106 134 l 106 620 l 241 757 l 751 757 m 321 641 l 321 109 l 536 109 l 536 641 l 321 641 "},"²":{"x_min":0,"x_max":0,"ha":5},"–":{"x_min":106.46875,"x_max":536.4375,"ha":644,"o":"m 536 431 l 106 431 l 106 540 l 536 540 l 536 431 "},"ë":{"x_min":106,"x_max":751,"ha":859,"o":"m 321 864 l 215 864 l 215 971 l 321 971 l 321 864 m 644 864 l 536 864 l 536 971 l 644 971 l 644 864 m 644 109 l 644 215 l 751 215 l 751 134 l 616 0 l 241 0 l 106 134 l 106 620 l 241 757 l 616 757 l 751 620 l 751 325 l 321 325 l 321 109 l 644 109 m 321 648 l 321 432 l 536 432 l 536 648 l 321 648 "},"ƒ":{"x_min":83,"x_max":432,"ha":515,"o":"m 224 -169 l 83 -169 l 83 -84 l 181 -84 l 181 402 l 89 402 l 89 479 l 181 479 l 181 641 l 277 751 l 432 751 l 432 661 l 334 654 l 334 479 l 432 479 l 432 402 l 334 402 l 334 -59 l 224 -169 "},"Î":{"x_min":0,"x_max":0,"ha":5},"e":{"x_min":106,"x_max":751,"ha":859,"o":"m 644 109 l 644 215 l 751 215 l 751 134 l 616 0 l 241 0 l 106 134 l 106 620 l 241 757 l 616 757 l 751 620 l 751 325 l 321 325 l 321 109 l 644 109 m 321 648 l 321 432 l 536 432 l 536 648 l 321 648 "},"Ã":{"x_min":106,"x_max":751,"ha":859,"o":"m 321 0 l 106 0 l 106 836 l 241 971 l 616 971 l 751 836 l 751 0 l 536 0 l 536 432 l 321 432 l 321 0 m 186 1079 l 106 1079 l 106 1161 l 241 1296 l 401 1296 l 510 1187 l 562 1187 l 671 1296 l 751 1296 l 751 1214 l 616 1079 l 456 1079 l 349 1187 l 295 1187 l 186 1079 m 321 864 l 321 541 l 536 541 l 536 864 l 321 864 "},"J":{"x_min":0,"x_max":699,"ha":787,"o":"m 0 134 l 0 432 l 215 432 l 215 109 l 484 109 l 484 971 l 699 971 l 699 134 l 565 0 l 134 0 l 0 134 "},"»":{"x_min":39.03125,"x_max":724.5,"ha":819,"o":"m 425 0 l 341 0 l 646 306 l 341 614 l 419 614 l 724 304 l 425 0 m 122 0 l 39 0 l 343 306 l 39 613 l 116 614 l 420 304 l 122 0 "},"©":{"x_min":106,"x_max":966,"ha":1074,"o":"m 724 0 l 348 0 l 106 243 l 106 729 l 348 971 l 724 971 l 966 729 l 966 243 l 724 0 m 347 109 l 725 109 l 859 243 l 859 728 l 724 864 l 348 864 l 215 729 l 215 243 l 347 109 m 644 432 l 751 432 l 751 350 l 616 215 l 456 215 l 321 350 l 321 620 l 456 757 l 616 757 l 751 620 l 751 540 l 644 540 l 644 648 l 430 648 l 430 324 l 644 324 l 644 432 "},"ò":{"x_min":106,"x_max":751,"ha":859,"o":"m 616 0 l 241 0 l 106 134 l 106 622 l 241 757 l 616 757 l 751 620 l 751 134 l 616 0 m 536 864 l 456 864 l 321 998 l 321 1080 l 401 1079 l 535 944 l 536 864 m 321 648 l 321 109 l 536 109 l 536 648 l 321 648 "},"^":{"x_min":214.984375,"x_max":751.40625,"ha":859,"o":"m 295 647 l 214 647 l 214 729 l 457 971 l 510 971 l 751 729 l 751 647 l 672 647 l 483 835 l 295 647 "},"«":{"x_min":69.421875,"x_max":754.171875,"ha":819,"o":"m 450 0 l 367 0 l 69 305 l 373 614 l 450 614 l 145 306 l 450 0 m 754 0 l 670 0 l 371 305 l 676 614 l 754 613 l 448 306 l 754 0 "},"D":{"x_min":106,"x_max":751,"ha":859,"o":"m 616 0 l 106 0 l 106 971 l 616 971 l 751 836 l 751 134 l 616 0 m 321 864 l 321 109 l 536 109 l 536 864 l 321 864 "},"∙":{"x_min":0,"x_max":0,"ha":5},"ÿ":{"x_min":106,"x_max":750.9375,"ha":859,"o":"m 321 864 l 215 864 l 215 971 l 321 971 l 321 864 m 644 864 l 536 864 l 536 971 l 644 971 l 644 864 m 294 -242 l 536 -242 l 536 0 l 241 0 l 106 134 l 106 756 l 321 756 l 321 109 l 536 109 l 536 755 l 750 755 l 750 -215 l 616 -350 l 241 -350 l 106 -215 l 106 -134 l 186 -134 l 294 -242 "},"":{"x_min":0,"x_max":773.109375,"ha":773,"o":"m 773 0 l 0 0 l 386 739 l 773 0 m 386 570 l 142 97 l 611 97 l 386 570 "},"í":{"x_min":214.71875,"x_max":430,"ha":644,"o":"m 430 0 l 215 0 l 215 755 l 430 755 l 430 0 m 295 859 l 215 859 l 214 941 l 349 1075 l 430 1076 l 430 994 l 295 859 "},"ˆ":{"x_min":0,"x_max":0,"ha":5},"w":{"x_min":106,"x_max":1180,"ha":1289,"o":"m 939 0 l 106 0 l 106 755 l 321 755 l 321 109 l 536 109 l 536 755 l 751 755 l 751 109 l 965 109 l 965 755 l 1180 755 l 1180 239 l 939 0 "},"$":{"x_min":106,"x_max":644,"ha":751,"o":"m 213 109 l 321 109 l 321 459 l 106 647 l 106 863 l 213 971 l 321 971 l 321 1080 l 430 1080 l 430 971 l 536 971 l 644 863 l 644 756 l 536 756 l 536 864 l 430 864 l 430 512 l 644 323 l 644 107 l 536 0 l 430 0 l 430 -108 l 321 -108 l 321 0 l 213 0 l 106 107 l 106 216 l 213 215 l 213 109 m 535 269 l 430 364 l 430 109 l 536 109 l 535 269 m 213 701 l 321 606 l 321 864 l 213 864 l 213 701 "},"\\":{"x_min":56.390625,"x_max":704.625,"ha":751,"o":"m 568 0 l 56 1080 l 185 1080 l 704 0 l 568 0 "},"Ì":{"x_min":0,"x_max":0,"ha":5},"µ":{"x_min":134,"x_max":966,"ha":1074,"o":"m 134 -323 l 215 -81 l 215 755 l 430 755 l 430 109 l 644 109 l 644 755 l 859 755 l 859 109 l 966 109 l 966 0 l 859 0 l 859 54 l 751 54 l 751 0 l 456 0 l 134 -323 "},"Ç":{"x_min":106,"x_max":751,"ha":859,"o":"m 644 216 l 751 215 l 751 134 l 616 0 l 536 0 l 536 -215 l 401 -350 l 295 -350 l 429 -215 l 430 -107 l 349 -107 l 106 134 l 106 836 l 241 971 l 616 971 l 751 836 l 751 755 l 644 755 l 644 864 l 321 864 l 321 109 l 644 109 l 644 216 "},"’":{"x_min":106,"x_max":321,"ha":430,"o":"m 214 675 l 215 755 l 106 755 l 106 971 l 321 971 l 321 675 l 186 539 l 106 539 l 106 566 l 214 675 "},"-":{"x_min":106.46875,"x_max":644.265625,"ha":751,"o":"m 644 370 l 106 370 l 106 479 l 644 479 l 644 370 "},"Q":{"x_min":106,"x_max":751,"ha":859,"o":"m 751 0 l 751 -121 l 536 -121 l 536 0 l 241 0 l 106 135 l 106 836 l 241 971 l 616 971 l 751 836 l 751 134 l 616 0 l 751 0 m 321 864 l 321 109 l 536 109 l 536 864 l 321 864 "},"M":{"x_min":106,"x_max":1180,"ha":1289,"o":"m 248 621 l 248 0 l 106 0 l 106 971 l 186 971 l 616 459 l 671 459 l 1100 971 l 1180 971 l 1180 0 l 979 0 l 979 598 l 650 202 l 596 202 l 248 621 "},"C":{"x_min":106,"x_max":751,"ha":859,"o":"m 644 222 l 751 222 l 751 134 l 616 0 l 241 0 l 106 134 l 106 836 l 241 971 l 616 971 l 751 836 l 751 748 l 644 748 l 644 857 l 321 857 l 321 115 l 644 115 l 644 222 "},"œ":{"x_min":106,"x_max":1182,"ha":1289,"o":"m 321 109 l 535 109 l 535 648 l 321 648 l 321 109 m 750 432 l 967 432 l 967 648 l 750 648 l 750 432 m 616 757 l 643 729 l 671 757 l 1046 757 l 1182 620 l 1182 325 l 751 325 l 751 109 l 1076 109 l 1076 216 l 1182 216 l 1182 135 l 1048 0 l 672 0 l 644 28 l 617 0 l 241 0 l 106 134 l 106 622 l 241 757 l 616 757 "},"!":{"x_min":215,"x_max":430,"ha":644,"o":"m 430 0 l 215 0 l 215 216 l 430 216 l 430 0 m 430 323 l 215 323 l 215 971 l 430 971 l 430 323 "},"ç":{"x_min":106,"x_max":751,"ha":859,"o":"m 644 109 l 644 216 l 751 215 l 751 134 l 616 0 l 536 0 l 536 -215 l 401 -350 l 295 -350 l 429 -215 l 430 -107 l 321 -107 l 321 0 l 241 0 l 106 134 l 106 620 l 241 757 l 616 757 l 751 620 l 751 540 l 644 540 l 644 648 l 321 648 l 321 109 l 644 109 "},"È":{"x_min":0,"x_max":0,"ha":5},"{":{"x_min":106,"x_max":430,"ha":536,"o":"m 321 81 l 429 -28 l 430 -108 l 349 -108 l 215 27 l 215 350 l 106 459 l 106 513 l 215 620 l 215 944 l 349 1080 l 430 1080 l 429 999 l 321 891 l 321 539 l 268 539 l 268 432 l 321 432 l 321 81 "},"X":{"x_min":106,"x_max":750,"ha":859,"o":"m 106 620 l 106 971 l 320 971 l 320 547 l 535 547 l 535 971 l 750 971 l 750 620 l 642 513 l 642 459 l 750 350 l 750 0 l 535 0 l 535 425 l 320 425 l 320 0 l 106 0 l 106 350 l 213 459 l 213 513 l 106 620 "},"ô":{"x_min":106,"x_max":751,"ha":859,"o":"m 295 864 l 214 864 l 214 944 l 401 1133 l 456 1133 l 643 944 l 643 864 l 563 864 l 429 998 l 295 864 m 616 0 l 241 0 l 106 134 l 106 622 l 241 757 l 616 757 l 751 620 l 751 134 l 616 0 m 321 648 l 321 109 l 536 109 l 536 648 l 321 648 "},"¼":{"x_min":0,"x_max":0,"ha":5},"#":{"x_min":106.46875,"x_max":966.390625,"ha":1074,"o":"m 758 755 l 692 540 l 859 541 l 859 432 l 659 431 l 591 216 l 482 216 l 550 432 l 334 432 l 268 216 l 161 216 l 227 432 l 106 432 l 106 541 l 261 541 l 327 755 l 214 755 l 214 864 l 361 864 l 429 1080 l 536 1079 l 468 864 l 683 864 l 751 1080 l 859 1080 l 791 864 l 966 864 l 966 755 l 758 755 m 650 755 l 434 755 l 369 541 l 583 541 l 650 755 "},"Ê":{"x_min":0,"x_max":0,"ha":5},")":{"x_min":106.46875,"x_max":430,"ha":536,"o":"m 430 836 l 430 134 l 187 -108 l 106 -108 l 107 -28 l 215 81 l 215 891 l 106 999 l 106 1080 l 187 1080 l 430 836 "},"Å":{"x_min":106,"x_max":750.9375,"ha":859,"o":"m 323 545 l 536 545 l 536 870 l 321 870 l 323 545 m 323 974 l 536 977 l 536 1187 l 323 1187 l 323 974 m 616 971 l 750 836 l 750 0 l 536 0 l 536 432 l 323 432 l 323 0 l 106 0 l 106 836 l 241 971 l 215 998 l 215 1161 l 349 1296 l 510 1296 l 644 1161 l 644 999 l 616 971 "},"ø":{"x_min":96,"x_max":752.46875,"ha":859,"o":"m 536 457 l 329 108 l 536 109 l 536 457 m 616 0 l 265 0 l 234 -52 l 96 -52 l 170 70 l 106 135 l 106 622 l 241 757 l 582 757 l 623 823 l 752 823 l 676 696 l 751 620 l 751 135 l 616 0 m 321 322 l 517 648 l 321 648 l 321 322 "},"â":{"x_min":105.78125,"x_max":750,"ha":859,"o":"m 294 864 l 213 864 l 213 944 l 400 1133 l 455 1133 l 642 944 l 642 864 l 562 864 l 428 998 l 294 864 m 750 622 l 750 0 l 241 0 l 106 134 l 106 404 l 240 541 l 535 541 l 535 648 l 267 648 l 267 594 l 106 594 l 105 622 l 238 757 l 615 757 l 750 622 m 321 432 l 321 109 l 535 109 l 535 432 l 321 432 "},"}":{"x_min":105,"x_max":429,"ha":536,"o":"m 105 -28 l 214 81 l 214 432 l 268 432 l 268 539 l 214 539 l 214 890 l 105 999 l 105 1080 l 184 1080 l 320 944 l 320 620 l 429 513 l 429 459 l 320 350 l 320 27 l 185 -108 l 105 -108 l 105 -28 "},"‰":{"x_min":107.828125,"x_max":536.4375,"ha":644,"o":"m 349 971 l 536 971 l 536 864 l 430 864 l 430 -81 l 295 -216 l 107 -216 l 107 -107 l 215 -107 l 215 836 l 349 971 "},"Ä":{"x_min":106,"x_max":750.9375,"ha":859,"o":"m 321 1079 l 215 1079 l 215 1187 l 321 1187 l 321 1079 m 644 1079 l 536 1079 l 536 1187 l 644 1187 l 644 1079 m 321 0 l 106 0 l 106 836 l 241 971 l 616 971 l 750 836 l 750 0 l 536 0 l 536 432 l 321 432 l 321 0 m 321 864 l 321 541 l 536 541 l 536 864 l 321 864 "},"¸":{"x_min":0,"x_max":0,"ha":5},"a":{"x_min":106,"x_max":751,"ha":859,"o":"m 751 622 l 751 0 l 241 0 l 106 134 l 106 376 l 241 513 l 536 513 l 536 648 l 275 648 l 275 594 l 114 594 l 114 622 l 248 757 l 616 757 l 751 622 m 321 404 l 321 109 l 536 109 l 536 404 l 321 404 "},"—":{"x_min":106.46875,"x_max":966.390625,"ha":1074,"o":"m 966 431 l 106 431 l 106 540 l 966 540 l 966 431 "},"=":{"x_min":106.46875,"x_max":751.40625,"ha":859,"o":"m 751 540 l 106 540 l 106 647 l 751 647 l 751 540 m 751 323 l 106 323 l 106 432 l 751 432 l 751 323 "},"N":{"x_min":106,"x_max":859,"ha":966,"o":"m 215 0 l 106 0 l 106 971 l 186 971 l 751 405 l 751 971 l 859 971 l 859 0 l 751 0 l 751 82 l 215 620 l 215 0 "},"ú":{"x_min":106,"x_max":751,"ha":859,"o":"m 106 108 l 106 755 l 321 755 l 321 109 l 536 109 l 536 755 l 751 755 l 751 0 l 214 0 l 106 108 m 401 864 l 320 863 l 320 944 l 456 1080 l 535 1080 l 535 999 l 401 864 "},"2":{"x_min":107.890625,"x_max":752,"ha":859,"o":"m 752 107 l 752 0 l 108 0 l 107 130 l 544 563 l 544 864 l 256 864 l 256 757 l 108 757 l 108 836 l 242 971 l 617 971 l 752 836 l 752 566 l 296 107 l 752 107 "},"ü":{"x_min":106,"x_max":750.9375,"ha":859,"o":"m 106 108 l 106 755 l 321 755 l 321 109 l 536 109 l 536 755 l 750 755 l 750 0 l 214 0 l 106 108 m 321 864 l 215 864 l 215 971 l 321 971 l 321 864 m 644 864 l 536 864 l 536 971 l 644 971 l 644 864 "},"¯":{"x_min":0,"x_max":0,"ha":5},"Z":{"x_min":108,"x_max":799,"ha":859,"o":"m 322 115 l 799 115 l 799 0 l 108 0 l 108 209 l 584 756 l 584 857 l 108 857 l 108 971 l 799 971 l 799 756 l 321 209 l 322 115 "},"u":{"x_min":106,"x_max":751,"ha":859,"o":"m 106 134 l 106 755 l 321 755 l 321 109 l 536 109 l 536 755 l 751 755 l 751 0 l 241 0 l 106 134 "},"˜":{"x_min":106.46875,"x_max":859.234375,"ha":966,"o":"m 859 540 l 106 540 l 106 647 l 859 647 l 859 540 m 859 323 l 106 323 l 106 432 l 859 432 l 859 323 m 343 216 l 185 216 l 614 757 l 772 757 l 343 216 "},"Ó":{"x_min":0,"x_max":0,"ha":5},"k":{"x_min":106,"x_max":751.734375,"ha":859,"o":"m 321 0 l 106 0 l 106 1073 l 321 1073 l 321 459 l 617 756 l 751 756 l 751 675 l 483 403 l 482 350 l 751 81 l 751 0 l 617 0 l 321 297 l 321 0 "},"Ù":{"x_min":0,"x_max":0,"ha":5},"Ÿ":{"x_min":0,"x_max":0,"ha":5},"¢":{"x_min":106,"x_max":644,"ha":751,"o":"m 321 216 l 321 325 l 241 325 l 106 459 l 106 836 l 241 973 l 321 973 l 321 1080 l 430 1080 l 430 973 l 510 973 l 644 836 l 644 757 l 536 757 l 536 864 l 430 864 l 430 432 l 536 432 l 536 541 l 644 541 l 644 459 l 510 325 l 430 325 l 430 216 l 321 216 m 321 432 l 321 864 l 215 864 l 215 432 l 321 432 "},"ß":{"x_min":215,"x_max":859,"ha":966,"o":"m 644 864 l 430 864 l 430 -350 l 215 -350 l 215 836 l 349 971 l 724 971 l 859 835 l 859 647 l 805 647 l 805 538 l 859 538 l 859 134 l 724 0 l 483 0 l 483 107 l 644 107 l 644 539 l 486 539 l 486 648 l 644 648 l 644 864 "},"é":{"x_min":106,"x_max":751,"ha":859,"o":"m 644 109 l 644 215 l 751 215 l 751 134 l 616 0 l 241 0 l 106 134 l 106 620 l 241 757 l 616 757 l 751 620 l 751 325 l 321 325 l 321 109 l 644 109 m 401 864 l 321 864 l 321 944 l 456 1080 l 536 1080 l 535 999 l 401 864 m 321 648 l 321 432 l 536 432 l 536 648 l 321 648 "},"s":{"x_min":102,"x_max":644,"ha":751,"o":"m 102 98 l 102 202 l 165 202 l 286 109 l 456 109 l 456 219 l 107 493 l 107 620 l 242 757 l 496 757 l 644 641 l 644 561 l 517 561 l 517 648 l 288 648 l 288 524 l 644 243 l 644 134 l 509 0 l 224 0 l 102 98 "},"B":{"x_min":106,"x_max":751,"ha":859,"o":"m 616 0 l 106 0 l 106 971 l 616 971 l 751 835 l 751 538 l 690 538 l 690 432 l 751 432 l 751 134 l 616 0 m 321 431 l 321 109 l 536 109 l 536 431 l 321 431 m 321 864 l 321 540 l 536 540 l 536 864 l 321 864 "},"…":{"x_min":215,"x_max":1289,"ha":1504,"o":"m 430 0 l 215 0 l 215 215 l 430 215 l 430 0 m 859 0 l 644 0 l 644 215 l 859 215 l 859 0 m 1289 0 l 1074 0 l 1074 215 l 1289 215 l 1289 0 "},"?":{"x_min":108,"x_max":752,"ha":859,"o":"m 537 0 l 322 0 l 322 209 l 537 209 l 537 0 m 537 323 l 322 323 l 322 506 l 536 722 l 536 857 l 215 857 l 215 755 l 108 755 l 108 836 l 242 971 l 617 971 l 752 836 l 751 722 l 536 506 l 537 323 "},"H":{"x_min":106,"x_max":751,"ha":859,"o":"m 321 0 l 106 0 l 106 971 l 321 971 l 321 540 l 536 540 l 536 971 l 751 971 l 751 0 l 536 0 l 536 431 l 321 431 l 321 0 "},"î":{"x_min":106,"x_max":536,"ha":644,"o":"m 430 0 l 215 0 l 215 756 l 430 756 l 430 0 m 186 864 l 106 863 l 106 944 l 295 1133 l 348 1133 l 536 944 l 536 863 l 456 864 l 321 999 l 186 864 "},"c":{"x_min":106,"x_max":644,"ha":751,"o":"m 536 115 l 536 222 l 644 222 l 644 134 l 510 0 l 241 0 l 106 134 l 106 620 l 241 757 l 510 757 l 644 620 l 644 533 l 536 533 l 536 641 l 321 641 l 321 115 l 536 115 "},"¶":{"x_min":106,"x_max":859,"ha":966,"o":"m 859 -350 l 429 -350 l 429 -243 l 536 -243 l 536 432 l 240 432 l 106 565 l 106 837 l 240 971 l 859 971 l 859 -350 m 751 -243 l 751 864 l 644 864 l 644 -243 l 751 -243 m 215 781 l 215 621 l 296 539 l 536 539 l 536 864 l 296 864 l 215 781 "},"•":{"x_min":106.46875,"x_max":644.265625,"ha":751,"o":"m 510 757 l 644 620 l 644 350 l 510 216 l 242 216 l 106 350 l 106 620 l 242 757 l 510 757 "},"¥":{"x_min":80,"x_max":992.734375,"ha":1074,"o":"m 777 755 l 965 755 l 965 647 l 644 647 l 644 539 l 966 539 l 966 432 l 644 432 l 644 0 l 429 0 l 429 432 l 106 432 l 106 539 l 429 539 l 429 647 l 107 647 l 107 755 l 294 755 l 80 971 l 294 970 l 509 754 l 562 755 l 777 971 l 992 971 l 777 755 "},"(":{"x_min":106,"x_max":429.953125,"ha":536,"o":"m 106 134 l 106 836 l 349 1080 l 429 1080 l 429 999 l 321 891 l 321 81 l 429 -28 l 429 -108 l 349 -108 l 106 134 "},"U":{"x_min":106,"x_max":750,"ha":859,"o":"m 106 134 l 106 971 l 321 971 l 321 109 l 536 109 l 536 971 l 750 971 l 750 134 l 750 0 l 241 0 l 106 134 "},"Ñ":{"x_min":106,"x_max":859,"ha":966,"o":"m 215 0 l 106 0 l 106 971 l 186 971 l 751 404 l 751 971 l 859 971 l 859 0 l 751 0 l 751 81 l 215 620 l 215 0 m 186 1079 l 106 1079 l 106 1161 l 241 1296 l 401 1296 l 510 1187 l 562 1187 l 671 1296 l 750 1296 l 750 1214 l 616 1079 l 456 1079 l 349 1187 l 295 1187 l 186 1079 "},"F":{"x_min":106,"x_max":657.828125,"ha":751,"o":"m 322 0 l 106 0 l 106 971 l 657 971 l 657 857 l 322 857 l 322 540 l 558 540 l 558 431 l 322 431 l 322 0 "},"­":{"x_min":106.46875,"x_max":644.265625,"ha":751,"o":"m 644 370 l 106 370 l 106 479 l 644 479 l 644 370 "},":":{"x_min":106,"x_max":321,"ha":430,"o":"m 321 0 l 106 0 l 106 202 l 321 202 l 321 0 m 321 648 l 106 648 l 106 844 l 321 844 l 321 648 "},"Û":{"x_min":0,"x_max":0,"ha":5},"":{"x_min":16,"x_max":1032.578125,"ha":1086,"o":"m 1032 281 q 1031 131 1032 239 q 1030 21 1030 24 q 1025 3 1030 9 q 1002 -2 1020 -2 l 819 -2 q 802 -2 808 -2 q 788 0 793 -2 q 783 15 783 4 q 787 35 783 25 q 794 52 791 46 l 833 155 l 869 248 q 878 271 873 259 q 892 284 884 284 l 980 284 q 1000 351 985 284 q 1022 419 1016 419 q 1029 389 1027 419 q 1032 281 1032 358 m 993 743 q 982 695 993 721 q 970 666 976 681 q 923 547 946 607 q 887 455 904 498 q 852 361 875 422 q 824 289 840 331 q 781 174 789 195 q 755 108 772 153 q 732 46 738 63 q 719 13 725 29 q 697 -2 710 -2 l 484 -2 q 470 14 470 -2 q 476 41 470 28 q 488 65 482 53 q 513 134 498 96 q 539 202 526 167 q 565 273 553 237 q 609 389 591 345 q 680 573 644 480 q 729 700 705 636 q 741 735 735 717 q 760 753 748 753 l 977 753 q 993 743 993 753 m 683 744 q 678 717 683 730 q 667 692 670 700 q 650 646 660 675 q 631 596 639 618 q 598 518 614 557 q 587 490 593 504 q 567 475 580 475 l 66 474 q 50 407 64 474 q 28 341 36 341 q 21 372 24 341 q 18 475 18 404 q 17 620 18 534 q 16 711 16 706 q 20 739 16 725 q 34 753 25 753 l 674 753 q 683 744 683 753 m 429 388 l 429 21 q 425 8 429 13 q 418 -2 421 2 l 202 -2 q 195 7 198 2 q 192 21 192 13 l 192 73 l 192 114 l 192 149 l 192 179 l 192 205 l 192 227 l 192 247 l 192 264 l 192 279 l 192 293 l 192 305 l 192 316 l 192 325 l 192 333 q 192 359 192 346 q 192 387 192 373 l 192 395 q 198 402 194 398 q 203 411 201 406 l 409 411 q 423 404 417 411 q 429 388 429 398 "},"*":{"x_min":120,"x_max":643.453125,"ha":751,"o":"m 430 971 l 430 802 l 584 891 l 638 798 l 484 709 l 643 618 l 590 523 l 430 616 l 430 432 l 321 432 l 321 613 l 172 527 l 120 621 l 270 708 l 124 793 l 178 887 l 320 804 l 321 971 l 430 971 "},"†":{"x_min":106,"x_max":430,"ha":536,"o":"m 321 432 l 215 432 l 215 755 l 106 755 l 106 864 l 215 864 l 215 971 l 321 971 l 321 864 l 430 864 l 430 755 l 321 755 l 321 432 "},"°":{"x_min":106,"x_max":536,"ha":644,"o":"m 401 541 l 241 541 l 106 675 l 106 838 l 241 973 l 401 973 l 536 838 l 536 675 l 401 541 m 215 866 l 215 650 l 430 650 l 430 866 l 215 866 "},"V":{"x_min":101,"x_max":751,"ha":859,"o":"m 101 119 l 106 971 l 321 971 l 321 122 l 536 122 l 536 971 l 751 971 l 751 212 l 537 0 l 322 0 l 101 119 "},"å":{"x_min":105.78125,"x_max":749.9375,"ha":859,"o":"m 509 864 l 348 864 l 214 998 l 214 1161 l 348 1296 l 509 1296 l 643 1161 l 643 998 l 509 864 m 749 622 l 749 0 l 241 0 l 106 134 l 106 404 l 241 541 l 535 541 l 535 648 l 267 648 l 267 594 l 106 594 l 105 622 l 238 757 l 615 757 l 749 622 m 320 1187 l 320 971 l 535 971 l 535 1187 l 320 1187 m 320 432 l 320 109 l 535 109 l 535 432 l 320 432 "}," ":{"x_min":0,"x_max":0,"ha":885},"0":{"x_min":106,"x_max":751,"ha":859,"o":"m 616 0 l 241 0 l 106 134 l 106 836 l 241 971 l 616 971 l 751 836 l 751 134 l 616 0 m 321 864 l 321 109 l 536 109 l 536 864 l 321 864 "},"”":{"x_min":106,"x_max":644,"ha":751,"o":"m 214 675 l 215 755 l 106 755 l 106 971 l 321 971 l 321 675 l 186 539 l 107 539 l 107 566 l 214 675 m 535 675 l 536 755 l 429 755 l 429 971 l 644 971 l 644 675 l 510 539 l 429 539 l 429 566 l 535 675 "},"¾":{"x_min":0,"x_max":0,"ha":5},"@":{"x_min":106,"x_max":1074,"ha":1181,"o":"m 858 109 l 858 0 l 348 0 l 106 243 l 106 620 l 348 864 l 831 864 l 1074 620 l 1074 350 l 939 215 l 751 215 l 751 270 l 644 270 l 644 215 l 456 215 l 321 350 l 320 513 l 457 647 l 751 647 l 751 323 l 886 323 l 966 402 l 965 566 l 777 757 l 401 757 l 215 568 l 215 297 l 401 109 l 858 109 m 430 540 l 430 323 l 643 323 l 643 540 l 430 540 "},"ö":{"x_min":106,"x_max":750.9375,"ha":859,"o":"m 321 864 l 215 864 l 215 971 l 321 971 l 321 864 m 644 864 l 536 864 l 536 971 l 644 971 l 644 864 m 616 0 l 241 0 l 106 134 l 106 622 l 241 757 l 616 757 l 750 620 l 750 134 l 616 0 m 321 648 l 321 109 l 536 109 l 536 648 l 321 648 "},"i":{"x_min":106,"x_max":321,"ha":430,"o":"m 321 0 l 106 0 l 106 755 l 321 755 l 321 0 m 321 864 l 106 864 l 106 985 l 321 985 l 321 864 "},"Õ":{"x_min":106,"x_max":751,"ha":859,"o":"m 616 0 l 241 0 l 106 134 l 106 836 l 241 971 l 616 971 l 751 836 l 751 134 l 616 0 m 186 1079 l 106 1079 l 106 1161 l 241 1296 l 401 1296 l 510 1187 l 562 1187 l 671 1296 l 751 1296 l 751 1214 l 616 1079 l 456 1079 l 349 1187 l 295 1187 l 186 1079 m 321 864 l 321 109 l 536 109 l 536 864 l 321 864 "},"þ":{"x_min":0,"x_max":0,"ha":5},"]":{"x_min":106.46875,"x_max":430,"ha":536,"o":"m 215 -1 l 215 971 l 107 971 l 107 1080 l 430 1080 l 430 -108 l 106 -108 l 106 -1 l 215 -1 "},"m":{"x_min":106,"x_max":1180,"ha":1289,"o":"m 321 0 l 106 0 l 106 755 l 1040 755 l 1180 620 l 1180 0 l 965 0 l 965 647 l 751 647 l 751 0 l 536 0 l 536 647 l 321 647 l 321 0 "},"8":{"x_min":106,"x_max":750,"ha":859,"o":"m 615 0 l 241 0 l 106 134 l 106 431 l 159 431 l 159 540 l 106 540 l 106 835 l 240 971 l 615 971 l 750 835 l 750 540 l 696 540 l 696 431 l 750 431 l 750 134 l 615 0 m 320 432 l 320 109 l 535 109 l 535 432 l 320 432 m 320 864 l 320 540 l 535 540 l 535 864 l 320 864 "},"R":{"x_min":106,"x_max":751,"ha":859,"o":"m 321 0 l 106 0 l 106 971 l 616 971 l 751 835 l 751 566 l 643 458 l 751 349 l 751 0 l 536 0 l 536 431 l 321 431 l 321 0 m 321 864 l 321 540 l 536 540 l 536 864 l 321 864 "},"á":{"x_min":105.78125,"x_max":750,"ha":859,"o":"m 750 622 l 750 0 l 241 0 l 106 134 l 106 404 l 240 541 l 535 541 l 535 648 l 267 648 l 267 594 l 106 594 l 105 622 l 238 757 l 615 757 l 750 622 m 400 864 l 319 864 l 319 944 l 455 1080 l 534 1080 l 534 999 l 400 864 m 321 432 l 321 109 l 535 109 l 535 432 l 321 432 "},"×":{"x_min":0,"x_max":0,"ha":5},"o":{"x_min":106,"x_max":751,"ha":859,"o":"m 616 0 l 241 0 l 106 134 l 106 622 l 241 757 l 616 757 l 751 620 l 751 134 l 616 0 m 321 648 l 321 109 l 536 109 l 536 648 l 321 648 "},"5":{"x_min":106,"x_max":751,"ha":859,"o":"m 106 971 l 751 971 l 751 864 l 321 864 l 321 647 l 616 647 l 751 512 l 751 134 l 616 0 l 241 0 l 106 135 l 106 216 l 242 215 l 242 107 l 536 107 l 536 538 l 106 538 l 106 971 "},"õ":{"x_min":106,"x_max":751,"ha":859,"o":"m 616 0 l 241 0 l 106 134 l 106 622 l 241 757 l 616 757 l 751 620 l 751 134 l 616 0 m 186 864 l 106 864 l 106 944 l 241 1080 l 401 1080 l 510 971 l 562 971 l 671 1079 l 751 1080 l 751 998 l 616 864 l 456 864 l 349 971 l 295 971 l 186 864 m 321 648 l 321 109 l 536 109 l 536 648 l 321 648 "},"7":{"x_min":106,"x_max":750.96875,"ha":859,"o":"m 535 864 l 106 864 l 106 971 l 750 971 l 750 600 l 536 383 l 536 0 l 321 0 l 321 383 l 536 599 l 535 864 "},"K":{"x_min":106,"x_max":865.1875,"ha":966,"o":"m 321 0 l 106 0 l 106 971 l 321 971 l 321 567 l 724 971 l 859 971 l 859 890 l 483 512 l 482 459 l 865 81 l 864 0 l 729 0 l 321 404 l 321 0 "},",":{"x_min":106,"x_max":321,"ha":430,"o":"m 215 -81 l 215 -1 l 106 -1 l 106 215 l 321 215 l 321 -81 l 186 -216 l 106 -216 l 107 -189 l 215 -81 "},"d":{"x_min":106,"x_max":751,"ha":859,"o":"m 536 762 l 536 1073 l 751 1073 l 751 0 l 241 0 l 106 135 l 106 625 l 241 762 l 536 762 m 321 109 l 536 109 l 536 646 l 321 646 l 321 109 "},"¨":{"x_min":106,"x_max":536,"ha":644,"o":"m 215 864 l 106 864 l 106 971 l 215 971 l 215 864 m 536 864 l 430 864 l 430 971 l 536 971 l 536 864 "},"Ô":{"x_min":0,"x_max":0,"ha":5},"E":{"x_min":106,"x_max":651.046875,"ha":751,"o":"m 651 115 l 651 0 l 106 0 l 106 971 l 651 971 l 651 857 l 321 857 l 321 540 l 550 540 l 550 431 l 321 431 l 321 115 l 651 115 "},"Y":{"x_min":106,"x_max":751,"ha":859,"o":"m 106 566 l 106 971 l 321 971 l 321 540 l 536 540 l 536 971 l 751 971 l 751 566 l 616 432 l 536 432 l 536 0 l 321 0 l 321 432 l 241 432 l 106 566 "},"\"":{"x_min":215,"x_max":536,"ha":751,"o":"m 321 647 l 215 647 l 215 971 l 321 971 l 321 647 m 536 647 l 430 647 l 430 971 l 536 971 l 536 647 "},"‹":{"x_min":0,"x_max":0,"ha":5},"ê":{"x_min":106,"x_max":751,"ha":859,"o":"m 295 864 l 214 864 l 214 944 l 401 1133 l 456 1133 l 643 944 l 643 864 l 563 864 l 429 998 l 295 864 m 644 109 l 644 215 l 751 215 l 751 134 l 616 0 l 241 0 l 106 134 l 106 620 l 241 757 l 616 757 l 751 620 l 751 325 l 321 325 l 321 109 l 644 109 m 321 648 l 321 432 l 536 432 l 536 648 l 321 648 "},"Ï":{"x_min":0,"x_max":0,"ha":5},"„":{"x_min":80,"x_max":602,"ha":686,"o":"m 186 0 l 80 116 l 80 274 l 344 547 l 344 613 l 173 613 l 173 701 l 405 701 l 602 498 l 602 204 l 398 0 l 186 0 m 254 90 l 377 90 l 428 158 l 428 459 l 253 294 l 254 90 "},"Â":{"x_min":0,"x_max":0,"ha":5},"Í":{"x_min":0,"x_max":0,"ha":5},"´":{"x_min":106.46875,"x_max":429.953125,"ha":536,"o":"m 187 647 l 106 647 l 106 728 l 348 971 l 429 971 l 429 891 l 187 647 "},"ì":{"x_min":210.90625,"x_max":430,"ha":644,"o":"m 430 0 l 215 0 l 215 755 l 430 755 l 430 0 m 425 864 l 345 864 l 210 998 l 210 1080 l 291 1079 l 425 944 l 425 864 "},"±":{"x_min":106,"x_max":644,"ha":751,"o":"m 644 0 l 106 0 l 106 109 l 644 109 l 644 0 m 430 215 l 321 215 l 321 431 l 106 431 l 106 540 l 321 540 l 321 757 l 430 757 l 430 540 l 644 540 l 644 431 l 430 431 l 430 215 "},"Ú":{"x_min":0,"x_max":0,"ha":5},"|":{"x_min":215,"x_max":321,"ha":536,"o":"m 321 1080 l 321 -108 l 215 -108 l 215 1080 l 321 1080 "},"§":{"x_min":106,"x_max":642.765625,"ha":751,"o":"m 642 944 l 642 863 l 536 863 l 536 971 l 213 971 l 213 837 l 642 404 l 642 216 l 536 215 l 536 350 l 106 782 l 106 944 l 241 1080 l 508 1080 l 642 944 m 106 -81 l 106 0 l 213 0 l 213 -107 l 536 -107 l 536 27 l 106 459 l 106 647 l 213 647 l 213 513 l 641 81 l 642 -81 l 508 -216 l 241 -216 l 106 -81 "},"Ý":{"x_min":0,"x_max":0,"ha":5},"b":{"x_min":106,"x_max":751,"ha":859,"o":"m 616 0 l 106 0 l 106 1074 l 321 1074 l 321 757 l 616 757 l 751 620 l 751 134 l 616 0 m 321 641 l 321 109 l 536 109 l 536 641 l 321 641 "},"q":{"x_min":106,"x_max":751,"ha":859,"o":"m 536 -350 l 536 0 l 241 0 l 106 134 l 106 620 l 241 757 l 751 757 l 751 -350 l 536 -350 m 321 648 l 321 109 l 536 109 l 536 648 l 321 648 "},"Ö":{"x_min":106,"x_max":750.9375,"ha":859,"o":"m 321 1079 l 215 1079 l 215 1187 l 321 1187 l 321 1079 m 644 1079 l 536 1079 l 536 1187 l 644 1187 l 644 1079 m 616 0 l 241 0 l 106 134 l 106 836 l 241 971 l 616 971 l 750 836 l 750 134 l 616 0 m 321 864 l 321 109 l 536 109 l 536 864 l 321 864 "},"z":{"x_min":108,"x_max":752,"ha":859,"o":"m 296 115 l 752 115 l 752 0 l 108 0 l 108 134 l 536 560 l 537 641 l 108 641 l 108 757 l 752 757 l 752 573 l 296 115 "},"™":{"x_min":106,"x_max":1074,"ha":1181,"o":"m 321 541 l 215 541 l 215 864 l 106 864 l 106 971 l 430 971 l 430 864 l 321 864 l 321 541 m 644 541 l 536 541 l 536 971 l 643 971 l 807 811 l 966 970 l 1074 971 l 1074 541 l 966 541 l 966 836 l 805 675 l 644 836 l 644 541 "},"ã":{"x_min":105.78125,"x_max":750,"ha":859,"o":"m 750 622 l 750 0 l 241 0 l 106 134 l 106 404 l 240 541 l 535 541 l 535 648 l 267 648 l 267 594 l 106 594 l 105 622 l 238 757 l 615 757 l 750 622 m 186 863 l 106 864 l 106 944 l 240 1080 l 400 1080 l 509 971 l 561 971 l 670 1079 l 750 1080 l 750 998 l 615 864 l 455 864 l 348 971 l 294 970 l 186 863 m 321 432 l 321 109 l 535 109 l 535 432 l 321 432 "},"æ":{"x_min":106,"x_max":1182,"ha":1289,"o":"m 750 434 l 967 432 l 967 648 l 751 648 l 750 434 m 321 109 l 536 109 l 536 431 l 321 431 l 321 109 m 1048 0 l 241 0 l 106 134 l 106 404 l 241 540 l 536 540 l 536 648 l 267 648 l 267 594 l 106 594 l 106 621 l 242 757 l 616 757 l 644 729 l 671 757 l 1047 757 l 1182 620 l 1182 325 l 754 325 l 754 109 l 1076 109 l 1076 216 l 1182 216 l 1182 135 l 1048 0 "},"®":{"x_min":106,"x_max":966,"ha":1074,"o":"m 724 0 l 348 0 l 106 243 l 106 729 l 348 971 l 724 971 l 966 729 l 966 243 l 724 0 m 348 109 l 725 109 l 859 243 l 859 728 l 723 864 l 349 864 l 215 728 l 215 243 l 348 109 m 430 216 l 321 216 l 321 757 l 670 757 l 751 674 l 751 540 l 698 540 l 698 431 l 751 431 l 751 216 l 644 216 l 644 432 l 430 432 l 430 216 m 430 648 l 430 541 l 644 541 l 644 648 l 430 648 "},"É":{"x_min":106,"x_max":644.265625,"ha":751,"o":"m 644 109 l 644 0 l 106 0 l 106 971 l 644 971 l 644 864 l 321 864 l 321 541 l 536 541 l 536 432 l 321 432 l 321 109 l 644 109 m 402 1079 l 321 1080 l 321 1161 l 457 1296 l 536 1296 l 536 1214 l 402 1079 "},"~":{"x_min":106.46875,"x_max":751.40625,"ha":859,"o":"m 187 540 l 106 541 l 106 620 l 242 757 l 402 757 l 510 648 l 563 648 l 671 757 l 751 757 l 751 675 l 617 541 l 456 540 l 348 647 l 295 647 l 187 540 "},"³":{"x_min":0,"x_max":0,"ha":5},"¡":{"x_min":215,"x_max":430,"ha":644,"o":"m 215 971 l 430 971 l 430 757 l 215 757 l 215 971 m 215 647 l 430 647 l 430 0 l 215 0 l 215 647 "},"[":{"x_min":108,"x_max":429.953125,"ha":536,"o":"m 322 971 l 322 -1 l 429 -1 l 429 -108 l 108 -108 l 108 1080 l 429 1080 l 429 971 l 322 971 "},"L":{"x_min":106,"x_max":644.265625,"ha":751,"o":"m 644 0 l 106 0 l 106 971 l 321 971 l 321 109 l 644 109 l 644 0 "},"":{"x_min":0,"x_max":0,"ha":5}," ":{"x_min":0,"x_max":0,"ha":458},"%":{"x_min":106,"x_max":1074,"ha":1181,"o":"m 966 0 l 751 0 l 644 108 l 644 324 l 751 432 l 966 432 l 1074 324 l 1074 108 l 966 0 m 535 1080 l 859 1080 l 859 970 l 430 107 l 429 0 l 320 0 l 320 108 l 750 971 l 535 971 l 535 757 l 429 648 l 214 648 l 106 757 l 106 971 l 214 1080 l 429 1080 l 429 1027 l 535 1027 l 535 1080 m 751 325 l 751 109 l 966 109 l 966 325 l 751 325 m 430 757 l 430 971 l 215 971 l 215 757 l 430 757 "},"P":{"x_min":106,"x_max":751,"ha":859,"o":"m 321 0 l 106 0 l 106 971 l 616 971 l 751 835 l 751 566 l 616 431 l 321 431 l 321 0 m 321 864 l 321 540 l 536 540 l 536 864 l 321 864 "},"À":{"x_min":106,"x_max":751,"ha":859,"o":"m 321 0 l 106 0 l 106 836 l 241 971 l 616 971 l 751 836 l 751 0 l 536 0 l 536 432 l 321 432 l 321 0 m 535 1080 l 456 1080 l 320 1214 l 320 1296 l 401 1296 l 536 1161 l 535 1080 m 321 864 l 321 541 l 536 541 l 536 864 l 321 864 "},"_":{"x_min":0,"x_max":859.234375,"ha":859,"o":"m 859 -1 l 0 -1 l 0 108 l 859 108 l 859 -1 "},"ñ":{"x_min":106,"x_max":751,"ha":859,"o":"m 321 0 l 106 0 l 106 755 l 643 755 l 751 647 l 751 0 l 536 0 l 536 647 l 321 647 l 321 0 m 186 864 l 106 864 l 106 944 l 241 1080 l 401 1080 l 510 971 l 562 971 l 671 1079 l 751 1080 l 751 998 l 616 864 l 456 864 l 349 971 l 295 971 l 186 864 "},"+":{"x_min":106,"x_max":644,"ha":751,"o":"m 430 154 l 321 154 l 321 370 l 106 370 l 106 479 l 321 479 l 321 696 l 430 696 l 430 479 l 644 479 l 644 370 l 430 370 l 430 154 "},"‚":{"x_min":106,"x_max":561.46875,"ha":644,"o":"m 534 0 l 106 0 l 106 109 l 534 109 l 534 0 m 321 459 l 561 215 l 347 216 l 106 459 l 106 513 l 347 757 l 561 757 l 321 513 l 321 459 "},"½":{"x_min":0,"x_max":0,"ha":5},"Æ":{"x_min":106,"x_max":1073.75,"ha":1181,"o":"m 322 539 l 536 539 l 536 864 l 321 864 l 322 539 m 536 0 l 536 432 l 322 432 l 322 0 l 106 0 l 106 836 l 241 971 l 1073 971 l 1073 864 l 752 864 l 752 539 l 967 539 l 967 432 l 752 432 l 752 109 l 1073 109 l 1073 0 l 536 0 "},"":{"x_min":105.71875,"x_max":1074.03125,"ha":1181,"o":"m 401 0 l 321 0 l 321 675 l 186 539 l 106 539 l 105 620 l 241 755 l 886 755 l 993 864 l 1073 864 l 1074 782 l 966 674 l 966 134 l 831 0 l 751 0 l 751 647 l 536 647 l 536 134 l 401 0 "},"Ë":{"x_min":0,"x_max":0,"ha":5},"'":{"x_min":106,"x_max":215,"ha":321,"o":"m 215 647 l 106 647 l 106 971 l 215 971 l 215 647 "},"Š":{"x_min":0,"x_max":0,"ha":5},"ª":{"x_min":83,"x_max":509,"ha":606,"o":"m 502 97 l 83 97 l 83 176 l 502 176 l 502 97 m 509 666 l 509 272 l 180 272 l 83 375 l 89 498 l 244 615 l 341 615 l 341 700 l 161 700 l 161 615 l 83 615 l 83 680 l 186 790 l 412 790 l 509 666 m 251 525 l 251 356 l 341 356 l 341 525 l 251 525 "},"Œ":{"x_min":106.46875,"x_max":1074.21875,"ha":1181,"o":"m 321 108 l 321 863 l 536 863 l 536 108 l 321 108 m 1074 0 l 242 0 l 106 135 l 106 837 l 242 973 l 492 973 l 812 973 q 902 973 857 973 q 993 973 948 973 l 1074 973 l 1074 866 l 752 866 l 752 541 l 967 541 l 967 432 l 752 432 l 752 109 l 1074 109 l 1074 0 "},"ð":{"x_min":0,"x_max":0,"ha":5},"T":{"x_min":7,"x_max":658,"ha":751,"o":"m 437 0 l 222 0 l 222 843 l 7 843 l 7 971 l 658 971 l 658 843 l 437 843 l 437 0 "},"š":{"x_min":0,"x_max":0,"ha":5},"":{"x_min":0,"x_max":0,"ha":5},"Þ":{"x_min":0,"x_max":0,"ha":5},"j":{"x_min":0,"x_max":536,"ha":644,"o":"m 0 -216 l 0 -134 l 106 -134 l 106 -235 l 321 -235 l 321 755 l 536 755 l 536 -215 l 401 -350 l 132 -350 l 0 -216 m 536 864 l 321 864 l 321 985 l 536 985 l 536 864 "},"1":{"x_min":214.984375,"x_max":536,"ha":859,"o":"m 536 0 l 321 0 l 321 755 l 214 755 l 214 837 l 349 971 l 536 971 l 536 0 "},"›":{"x_min":0,"x_max":0,"ha":5},"ä":{"x_min":106,"x_max":749.9375,"ha":859,"o":"m 320 864 l 214 864 l 214 971 l 320 971 l 320 864 m 643 864 l 535 864 l 535 971 l 643 971 l 643 864 m 749 622 l 749 0 l 241 0 l 106 134 l 106 404 l 241 540 l 535 540 l 535 648 l 267 648 l 267 594 l 106 594 l 106 621 l 240 757 l 615 757 l 749 622 m 320 431 l 320 109 l 535 109 l 535 431 l 320 431 "},"¹":{"x_min":0,"x_max":0,"ha":5},"<":{"x_min":0,"x_max":563.671875,"ha":644,"o":"m 349 109 l 0 459 l 0 513 l 349 864 l 563 863 l 215 512 l 214 458 l 563 108 l 349 109 "},"£":{"x_min":106,"x_max":858.765625,"ha":966,"o":"m 778 215 l 858 215 l 858 134 l 724 0 l 106 0 l 106 109 l 215 109 l 215 431 l 106 431 l 106 540 l 215 540 l 215 835 l 349 971 l 616 971 l 750 836 l 750 756 l 671 756 l 562 863 l 430 864 l 430 540 l 536 540 l 536 431 l 430 431 l 430 109 l 672 109 l 778 215 "},"t":{"x_min":60.359375,"x_max":589.328125,"ha":653,"o":"m 589 109 l 589 0 l 308 0 l 174 135 l 174 648 l 60 648 l 60 757 l 174 757 l 174 1073 l 389 1073 l 389 757 l 585 757 l 585 648 l 389 648 l 389 109 l 589 109 "},"¬":{"x_min":88.515625,"x_max":502,"ha":593,"o":"m 438 402 l 88 402 l 88 479 l 502 479 l 502 227 l 438 227 l 438 402 "},"ù":{"x_min":106,"x_max":751,"ha":859,"o":"m 106 108 l 106 755 l 321 755 l 321 109 l 536 109 l 536 755 l 751 755 l 751 0 l 214 0 l 106 108 m 535 863 l 456 863 l 320 998 l 320 1080 l 401 1079 l 535 944 l 535 863 "},"W":{"x_min":101,"x_max":1180,"ha":1289,"o":"m 101 120 l 106 971 l 321 971 l 321 122 l 536 122 l 536 971 l 751 971 l 751 122 l 965 122 l 965 971 l 1180 971 l 1180 212 l 965 0 l 321 0 l 101 120 "},"ï":{"x_min":106,"x_max":536,"ha":644,"o":"m 430 0 l 215 0 l 215 755 l 430 755 l 430 0 m 214 864 l 106 864 l 106 971 l 214 971 l 214 864 m 536 864 l 429 864 l 429 971 l 536 971 l 536 864 "},"":{"x_min":108,"x_max":968,"ha":1074,"o":"m 431 296 l 431 0 l 194 0 l 194 109 l 322 109 l 321 243 l 108 459 l 108 729 l 349 971 l 725 971 l 968 729 l 968 459 l 753 243 l 753 109 l 879 109 l 879 0 l 644 0 l 644 295 l 753 403 l 753 728 l 617 863 l 457 863 l 323 729 l 323 404 l 431 296 "},">":{"x_min":-1.71875,"x_max":561.71875,"ha":644,"o":"m 561 459 l 214 108 l -1 109 l 347 459 l 347 513 l -1 864 l 213 863 l 560 512 l 561 459 "},"v":{"x_min":106,"x_max":751,"ha":859,"o":"m 510 0 l 106 0 l 106 755 l 321 755 l 321 109 l 536 109 l 536 755 l 751 755 l 751 239 l 510 0 "},"û":{"x_min":106,"x_max":751,"ha":859,"o":"m 106 108 l 106 755 l 321 755 l 321 109 l 536 109 l 536 755 l 751 755 l 751 0 l 214 0 l 106 108 m 295 864 l 214 864 l 214 944 l 401 1133 l 456 1133 l 643 944 l 643 864 l 563 864 l 429 998 l 295 864 "},"Ò":{"x_min":0,"x_max":0,"ha":5},"&":{"x_min":106,"x_max":965,"ha":1074,"o":"m 615 0 l 241 0 l 106 134 l 106 540 l 160 540 l 160 647 l 106 647 l 106 835 l 240 971 l 615 971 l 750 835 l 750 647 l 535 647 l 535 864 l 320 864 l 320 648 l 429 648 l 429 540 l 320 540 l 320 109 l 535 109 l 535 540 l 858 540 l 858 756 l 965 756 l 965 565 l 750 350 l 750 134 l 615 0 "},"":{"x_min":107.828125,"x_max":859.234375,"ha":966,"o":"m 859 375 l 482 0 l 107 378 l 482 755 l 859 375 "},"Ð":{"x_min":0,"x_max":0,"ha":5},"I":{"x_min":215,"x_max":430,"ha":644,"o":"m 430 0 l 215 0 l 215 971 l 430 971 l 430 0 "},"G":{"x_min":106,"x_max":751,"ha":859,"o":"m 543 431 l 429 431 l 429 540 l 751 540 l 751 134 l 616 0 l 241 0 l 106 134 l 106 836 l 241 971 l 616 971 l 751 836 l 751 748 l 644 748 l 644 857 l 314 857 l 314 109 l 543 109 l 543 431 "},"`":{"x_min":106.46875,"x_max":429.953125,"ha":644,"o":"m 429 755 l 321 755 l 106 971 l 106 1080 l 214 1079 l 429 863 l 429 755 "},"r":{"x_min":106,"x_max":664.140625,"ha":755,"o":"m 321 0 l 106 0 l 106 762 l 253 762 l 253 619 l 456 762 l 664 762 l 664 627 l 491 626 l 321 508 l 321 0 "},"¿":{"x_min":107.90625,"x_max":753,"ha":859,"o":"m 322 971 l 537 971 l 537 757 l 322 757 l 322 971 m 322 647 l 537 647 l 537 432 l 323 215 l 323 107 l 646 107 l 646 216 l 753 215 l 753 107 l 645 0 l 216 0 l 108 107 l 107 215 l 321 432 l 322 647 "},"":{"x_min":65,"x_max":708.015625,"ha":773,"o":"m 708 402 l 386 69 l 65 402 l 386 719 l 708 402 m 161 401 l 386 167 l 611 401 l 386 622 l 161 401 "},"ý":{"x_min":0,"x_max":0,"ha":5},"x":{"x_min":106,"x_max":750,"ha":859,"o":"m 107 432 l 106 755 l 320 755 l 320 432 l 535 432 l 535 755 l 750 755 l 750 432 l 642 432 l 642 325 l 750 325 l 750 0 l 535 0 l 535 323 l 320 323 l 320 0 l 106 0 l 106 325 l 213 325 l 213 432 l 107 432 "},"è":{"x_min":106,"x_max":751,"ha":859,"o":"m 644 109 l 644 215 l 751 215 l 751 134 l 616 0 l 241 0 l 106 134 l 106 620 l 241 757 l 616 757 l 751 620 l 751 325 l 321 325 l 321 109 l 644 109 m 536 864 l 456 864 l 321 998 l 321 1080 l 401 1079 l 535 944 l 536 864 m 321 648 l 321 432 l 536 432 l 536 648 l 321 648 "},"º":{"x_min":83,"x_max":509,"ha":599,"o":"m 502 97 l 89 97 l 89 176 l 502 176 l 502 97 m 405 272 l 186 272 l 83 375 l 83 680 l 186 790 l 412 790 l 509 680 l 509 388 l 405 272 m 251 700 l 251 356 l 348 356 l 348 700 l 251 700 "},"Ø":{"x_min":96,"x_max":751,"ha":859,"o":"m 535 856 l 321 856 l 322 401 l 535 856 m 322 131 l 536 131 l 536 607 l 322 131 m 616 0 l 258 0 l 234 -52 l 96 -52 l 159 81 l 106 135 l 106 836 l 241 971 l 589 971 l 616 1027 l 745 1027 l 686 902 l 751 836 l 751 134 l 616 0 "},"÷":{"x_min":106,"x_max":644,"ha":751,"o":"m 644 431 l 106 431 l 106 540 l 644 540 l 644 431 m 430 647 l 321 647 l 321 755 l 430 755 l 430 647 m 430 216 l 321 216 l 321 325 l 430 325 l 430 216 "},"h":{"x_min":106,"x_max":751,"ha":859,"o":"m 321 0 l 106 0 l 106 1073 l 321 1073 l 321 757 l 616 757 l 751 619 l 751 0 l 536 0 l 536 640 l 321 640 l 321 0 "},".":{"x_min":106,"x_max":321,"ha":430,"o":"m 321 0 l 106 0 l 106 215 l 321 215 l 321 0 "},";":{"x_min":106,"x_max":321,"ha":430,"o":"m 321 648 l 106 648 l 106 864 l 321 864 l 321 648 m 215 -81 l 215 0 l 106 0 l 106 216 l 321 216 l 321 -81 l 186 -216 l 106 -216 l 107 -189 l 215 -81 "},"f":{"x_min":93,"x_max":630.796875,"ha":644,"o":"m 417 0 l 202 0 l 202 647 l 93 647 l 93 762 l 202 762 l 202 938 l 336 1073 l 630 1073 l 630 966 l 417 966 l 417 762 l 538 762 l 538 647 l 417 647 l 417 0 "},"“":{"x_min":108,"x_max":644.4375,"ha":751,"o":"m 537 835 l 537 755 l 644 755 l 644 539 l 431 539 l 431 836 l 562 971 l 644 971 l 644 944 l 537 835 m 216 835 l 215 755 l 322 755 l 322 539 l 108 539 l 108 836 l 240 971 l 322 971 l 323 943 l 216 835 "},"A":{"x_min":106,"x_max":751,"ha":859,"o":"m 321 0 l 106 0 l 106 835 l 240 971 l 616 971 l 751 836 l 751 0 l 536 0 l 536 431 l 321 431 l 321 0 m 321 857 l 321 540 l 536 540 l 536 857 l 321 857 "},"6":{"x_min":106,"x_max":751,"ha":859,"o":"m 348 971 l 643 971 l 643 864 l 456 863 l 321 728 l 321 647 l 616 647 l 751 512 l 751 133 l 616 0 l 241 0 l 106 134 l 106 729 l 348 971 m 536 107 l 536 540 l 321 540 l 321 107 l 536 107 "},"‘":{"x_min":108,"x_max":322.5625,"ha":430,"o":"m 214 836 l 215 755 l 322 755 l 322 539 l 108 539 l 108 836 l 240 971 l 322 971 l 322 944 l 214 836 "},"O":{"x_min":106,"x_max":751,"ha":859,"o":"m 616 0 l 241 0 l 106 134 l 106 836 l 241 971 l 616 971 l 751 836 l 751 134 l 616 0 m 321 864 l 321 109 l 536 109 l 536 864 l 321 864 "},"n":{"x_min":106,"x_max":751,"ha":859,"o":"m 321 0 l 106 0 l 106 755 l 616 755 l 751 620 l 751 0 l 536 0 l 536 647 l 321 647 l 321 0 "},"3":{"x_min":93,"x_max":753,"ha":859,"o":"m 95 140 l 93 216 l 222 215 l 222 109 l 537 109 l 537 473 l 302 473 l 302 562 l 600 857 l 154 857 l 154 971 l 745 971 l 745 856 l 468 579 l 617 580 l 753 445 l 753 135 l 617 0 l 235 0 l 95 140 "},"9":{"x_min":108,"x_max":752,"ha":859,"o":"m 504 0 l 201 0 l 201 109 l 403 108 l 592 296 l 592 325 l 242 325 l 108 459 l 108 836 l 242 973 l 617 973 l 752 836 l 752 243 l 504 0 m 322 864 l 322 432 l 537 432 l 537 864 l 322 864 "},"l":{"x_min":106,"x_max":321,"ha":430,"o":"m 321 0 l 106 0 l 106 1073 l 321 1073 l 321 0 "},"¤":{"x_min":0,"x_max":0,"ha":5},"4":{"x_min":108,"x_max":859.40625,"ha":859,"o":"m 752 432 l 859 432 l 859 325 l 752 325 l 752 0 l 537 0 l 537 325 l 108 325 l 108 513 l 568 971 l 752 971 l 752 432 m 187 432 l 537 432 l 537 782 l 187 432 "},"p":{"x_min":106,"x_max":751,"ha":859,"o":"m 106 -350 l 106 755 l 616 755 l 751 620 l 751 134 l 616 0 l 321 0 l 321 -350 l 106 -350 m 536 647 l 321 647 l 321 107 l 536 107 l 536 647 "},"‡":{"x_min":83,"x_max":779.46875,"ha":857,"o":"m 341 0 l 174 0 l 174 615 l 83 615 l 83 707 l 779 707 l 779 622 l 696 622 l 696 0 l 528 0 l 528 615 l 341 615 l 341 0 "},"à":{"x_min":105.78125,"x_max":750,"ha":859,"o":"m 750 622 l 750 0 l 241 0 l 106 134 l 106 404 l 240 541 l 535 541 l 535 648 l 267 648 l 267 594 l 106 594 l 105 622 l 238 757 l 615 757 l 750 622 m 534 864 l 455 864 l 319 998 l 319 1080 l 400 1079 l 534 944 l 534 864 m 321 432 l 321 109 l 535 109 l 535 432 l 321 432 "},"Ü":{"x_min":106,"x_max":750.9375,"ha":859,"o":"m 321 1079 l 215 1079 l 215 1187 l 321 1187 l 321 1079 m 644 1079 l 536 1079 l 536 1187 l 644 1187 l 644 1079 m 106 134 l 106 971 l 321 971 l 321 109 l 536 109 l 536 971 l 750 971 l 750 134 l 616 0 l 241 0 l 106 134 "},"ó":{"x_min":106,"x_max":751,"ha":859,"o":"m 616 0 l 241 0 l 106 134 l 106 622 l 241 757 l 616 757 l 751 620 l 751 134 l 616 0 m 401 864 l 321 864 l 321 944 l 456 1080 l 536 1080 l 535 999 l 401 864 m 321 648 l 321 109 l 536 109 l 536 648 l 321 648 "}}}
